<svg id="visual" viewBox="0 0 900 50" width="900" height="50" xmlns="http://www.w3.org/2000/svg" xmlns:xlink="http://www.w3.org/1999/xlink" version="1.1">
    <path d="M0 43L21.5 42.8C43 42.7 86 42.3 128.8 40.7C171.7 39 214.3 36 257.2 34.3C300 32.7 343 32.3 385.8 31C428.7 29.7 471.3 27.3 514.2 27.3C557 27.3 600 29.7 642.8 30.7C685.7 31.7 728.3 31.3 771.2 32C814 32.7 857 34.3 878.5 35.2L900 36L900 0L878.5 0C857 0 814 0 771.2 0C728.3 0 685.7 0 642.8 0C600 0 557 0 514.2 0C471.3 0 428.7 0 385.8 0C343 0 300 0 257.2 0C214.3 0 171.7 0 128.8 0C86 0 43 0 21.5 0L0 0Z"
        fill="#58ffff"></path>
    <path d="M0 23L21.5 21.3C43 19.7 86 16.3 128.8 17.3C171.7 18.3 214.3 23.7 257.2 25.2C300 26.7 343 24.3 385.8 23.2C428.7 22 471.3 22 514.2 21.5C557 21 600 20 642.8 19C685.7 18 728.3 17 771.2 17C814 17 857 18 878.5 18.5L900 19L900 0L878.5 0C857 0 814 0 771.2 0C728.3 0 685.7 0 642.8 0C600 0 557 0 514.2 0C471.3 0 428.7 0 385.8 0C343 0 300 0 257.2 0C214.3 0 171.7 0 128.8 0C86 0 43 0 21.5 0L0 0Z"
        fill="#0C3C5C"></path>
</svg>